<svg xmlns="http://www.w3.org/2000/svg" width="45" height="45" viewBox="0 0 45 45"><defs><style>.a{fill:#0060ad;}.b{fill:#fff;}.c{fill:#bac8e6;}</style></defs><path class="a" d="M.272,44.728V.271H44.728V44.728Z"/><path class="b" d="M45,45H0V0H45ZM.545,44.458h43.91V.541H.545Z"/><path class="c" d="M11.666,22.278a22.24,22.24,0,0,1-1.917-1.265,1.661,1.661,0,0,1-.391-1.651H3.02v2.916Z"/><path class="c" d="M19.885,21.058c-.419.245-2.32,1.22-2.32,1.22h3.053c0-.158.317-.5.317-.5A.977.977,0,0,1,19.885,21.058Z"/><path class="c" d="M25.649,21.058c.249.2,1.954,1.22,1.954,1.22h-3a1.79,1.79,0,0,0-.2-.52,1.165,1.165,0,0,0,1.246-.7Z"/><path class="c" d="M33.587,22.278a21.967,21.967,0,0,0,2.3-1.31,1.8,1.8,0,0,0,.7-1.618h5.446v2.928Z"/><path class="b" d="M16.291,10.307a1.671,1.671,0,0,0,1.606-1.4,1.19,1.19,0,0,0-1.211-1.4,1.671,1.671,0,0,0-1.606,1.4,1.19,1.19,0,0,0,1.211,1.4Z"/><path class="b" d="M16.488,8.908"/><path class="b" d="M12.651,10.387"/><path class="b" d="M16.18,11.011,19.253,9.3a1.709,1.709,0,0,1,.818-.229,1.116,1.116,0,0,1,1.135,1.312,1.553,1.553,0,0,1-.719,1.076l-2.32,1.3s-.315,2.192-.477,3.327a.568.568,0,0,1-.783.374c-.465-.271-1.378-.857-1.378-.857s-1.079.586-1.62.857c-.317.159-.724-.045-.678-.374.16-1.135.465-3.327.465-3.327l-1.953-1.3a1.129,1.129,0,0,1-.413-1.076,1.567,1.567,0,0,1,1.506-1.312,1.185,1.185,0,0,1,.678.2Z"/><path class="b" d="M24.942,5.72a1.674,1.674,0,0,0,1.608-1.4,1.191,1.191,0,0,0-1.211-1.4,1.671,1.671,0,0,0-1.607,1.4,1.19,1.19,0,0,0,1.21,1.4Z"/><path class="b" d="M25.141,4.32"/><path class="b" d="M21.3,5.8"/><path class="b" d="M24.831,6.423,27.9,4.717a1.7,1.7,0,0,1,.818-.23A1.117,1.117,0,0,1,29.859,5.8a1.561,1.561,0,0,1-.719,1.077l-2.321,1.3S26.5,10.37,26.341,11.5a.567.567,0,0,1-.782.374c-.464-.271-1.378-.856-1.378-.856s-1.079.585-1.621.856c-.315.159-.722-.045-.677-.374.16-1.134.465-3.327.465-3.327L20.4,6.876A1.131,1.131,0,0,1,19.982,5.8a1.567,1.567,0,0,1,1.506-1.312,1.185,1.185,0,0,1,.678.2Z"/><path class="b" d="M32.264,10.307a1.67,1.67,0,0,0,1.606-1.4,1.189,1.189,0,0,0-1.21-1.4,1.673,1.673,0,0,0-1.607,1.4,1.19,1.19,0,0,0,1.211,1.4Z"/><path class="b" d="M32.462,8.908"/><path class="b" d="M28.624,10.387"/><path class="b" d="M32.153,11.011,35.227,9.3a1.7,1.7,0,0,1,.817-.229,1.115,1.115,0,0,1,1.135,1.312,1.552,1.552,0,0,1-.718,1.076l-2.321,1.3s-.315,2.192-.477,3.327a.568.568,0,0,1-.783.374c-.464-.271-1.378-.857-1.378-.857s-1.079.586-1.62.857c-.317.159-.723-.045-.677-.374.159-1.135.464-3.327.464-3.327l-1.952-1.3a1.128,1.128,0,0,1-.414-1.076,1.568,1.568,0,0,1,1.506-1.312,1.188,1.188,0,0,1,.679.2Z"/><path class="b" d="M30.92,19.573a1.674,1.674,0,0,0,1.607-1.4,1.191,1.191,0,0,0-1.211-1.4,1.671,1.671,0,0,0-1.606,1.4,1.19,1.19,0,0,0,1.21,1.4Z"/><path class="b" d="M31.118,18.173"/><path class="b" d="M27.28,19.652"/><path class="b" d="M30.809,20.276l3.074-1.706a1.694,1.694,0,0,1,.818-.23,1.117,1.117,0,0,1,1.135,1.312,1.556,1.556,0,0,1-.719,1.077l-2.32,1.3s-.316,2.193-.478,3.328a.567.567,0,0,1-.783.373c-.464-.271-1.377-.856-1.377-.856s-1.079.585-1.621.856c-.316.159-.723-.044-.677-.373.159-1.135.464-3.328.464-3.328l-1.952-1.3a1.129,1.129,0,0,1-.414-1.077,1.569,1.569,0,0,1,1.507-1.312,1.185,1.185,0,0,1,.678.2Z"/><path class="b" d="M23.638,14.94a1.672,1.672,0,0,0,1.606-1.4,1.19,1.19,0,0,0-1.21-1.4,1.674,1.674,0,0,0-1.608,1.4,1.191,1.191,0,0,0,1.212,1.4Z"/><path class="b" d="M23.835,13.541"/><path class="b" d="M20,15.02"/><path class="b" d="M23.527,15.643,26.6,13.937a1.706,1.706,0,0,1,.818-.229,1.116,1.116,0,0,1,1.135,1.312,1.558,1.558,0,0,1-.718,1.076l-2.322,1.3s-.315,2.194-.477,3.328a.568.568,0,0,1-.782.374c-.465-.272-1.378-.857-1.378-.857s-1.079.585-1.62.857c-.317.158-.724-.045-.677-.374.159-1.134.464-3.328.464-3.328L19.09,16.1a1.129,1.129,0,0,1-.413-1.076,1.567,1.567,0,0,1,1.506-1.312,1.189,1.189,0,0,1,.678.2Z"/><path class="b" d="M22.339,24.161a1.672,1.672,0,0,0,1.607-1.4,1.19,1.19,0,0,0-1.211-1.4,1.673,1.673,0,0,0-1.607,1.4,1.191,1.191,0,0,0,1.211,1.4Z"/><path class="b" d="M22.537,22.761"/><path class="b" d="M18.7,24.24"/><path class="b" d="M22.229,24.864,25.3,23.158a1.7,1.7,0,0,1,.818-.23,1.116,1.116,0,0,1,1.135,1.312,1.56,1.56,0,0,1-.718,1.077l-2.322,1.3s-.315,2.193-.477,3.328a.567.567,0,0,1-.782.373c-.464-.271-1.378-.856-1.378-.856s-1.079.585-1.62.856c-.317.159-.724-.044-.677-.373.158-1.135.464-3.328.464-3.328l-1.953-1.3a1.131,1.131,0,0,1-.413-1.077,1.568,1.568,0,0,1,1.506-1.312,1.185,1.185,0,0,1,.678.2Z"/><path class="b" d="M14.986,19.528a1.674,1.674,0,0,0,1.607-1.4,1.191,1.191,0,0,0-1.211-1.4,1.674,1.674,0,0,0-1.608,1.4,1.192,1.192,0,0,0,1.212,1.4Z"/><path class="b" d="M15.184,18.129"/><path class="b" d="M11.346,19.608"/><path class="b" d="M14.875,20.231l3.074-1.706a1.689,1.689,0,0,1,.817-.229A1.116,1.116,0,0,1,19.9,19.608a1.555,1.555,0,0,1-.718,1.076l-2.321,1.3s-.315,2.193-.477,3.328a.569.569,0,0,1-.783.374c-.464-.272-1.378-.857-1.378-.857s-1.079.585-1.62.857c-.317.158-.723-.045-.677-.374.159-1.135.464-3.328.464-3.328l-1.952-1.3a1.128,1.128,0,0,1-.414-1.076A1.568,1.568,0,0,1,11.531,18.3a1.187,1.187,0,0,1,.679.2Z"/><path class="b" d="M5.2,35.175l.729-1.21.227,1.21Zm1.014.317c.073.349.114.7.158,1.09.154-.011.3-.025.456-.025s.3.014.445.025L6.52,32.968a1.391,1.391,0,0,1-.2.015,1.261,1.261,0,0,1-.2-.015l-2.2,3.6c.084,0,.17-.014.254-.014s.16.009.243.014c.17-.359.364-.683.578-1.079Z"/><path class="b" d="M8.629,36.183a11.827,11.827,0,0,0,1.213-.073,1.91,1.91,0,0,0-.07.223,1.661,1.661,0,0,0-.017.223H7.772l.693-3.541c.128.01.256.026.387.026s.264-.016.4-.026Z"/><path class="b" d="M11.247,36.183a11.827,11.827,0,0,0,1.213-.073,1.91,1.91,0,0,0-.07.223,1.661,1.661,0,0,0-.017.223H10.39l.693-3.541c.128.01.256.026.387.026s.264-.016.4-.026Z"/><path class="b" d="M15.447,33.237c.787,0,.95.77.819,1.439-.169.863-.687,1.663-1.494,1.663-.786,0-.954-.717-.822-1.392C14.177,33.783,14.719,33.237,15.447,33.237Zm1.665,1.538a1.428,1.428,0,0,0-1.572-1.849,2.371,2.371,0,0,0-2.426,1.87,1.422,1.422,0,0,0,1.571,1.854,2.4,2.4,0,0,0,2.427-1.875Z"/><path class="b" d="M20.312,35.981l-.2.447a2.6,2.6,0,0,1-1.08.222c-1.121,0-1.832-.686-1.623-1.75a2.37,2.37,0,0,1,2.466-1.974,2.084,2.084,0,0,1,1.019.254c-.082.177-.148.354-.226.536H20.6a.87.87,0,0,0-.776-.479c-.869,0-1.382.827-1.531,1.59-.174.889.144,1.512.95,1.512a1.788,1.788,0,0,0,1.014-.39Z"/><path class="b" d="M21.784,35.175l.73-1.21.226,1.21Zm1.014.317c.073.349.114.7.159,1.09.154-.011.3-.025.456-.025s.3.014.444.025L23.1,32.968a1.38,1.38,0,0,1-.2.015,1.258,1.258,0,0,1-.194-.015l-2.2,3.6c.085,0,.171-.014.254-.014s.161.009.243.014c.17-.359.364-.683.578-1.079Z"/><path class="b" d="M25.787,36.582c-.129-.011-.257-.025-.387-.025s-.264.014-.4.025l.625-3.2a7.638,7.638,0,0,0-.988.073.981.981,0,0,0,.087-.444h2.7a1.844,1.844,0,0,0-.069.219,1.48,1.48,0,0,0-.018.225,7.649,7.649,0,0,0-.923-.073Z"/><path class="b" d="M28.012,33.015c.129.01.256.026.387.026s.265-.016.4-.026l-.7,3.567c-.129-.011-.257-.025-.387-.025s-.264.014-.4.025Z"/><path class="b" d="M31.448,33.237c.786,0,.949.77.818,1.439-.168.863-.686,1.663-1.493,1.663-.786,0-.955-.717-.823-1.392C30.178,33.783,30.719,33.237,31.448,33.237Zm1.665,1.538a1.429,1.429,0,0,0-1.573-1.849,2.371,2.371,0,0,0-2.426,1.87,1.422,1.422,0,0,0,1.571,1.854,2.406,2.406,0,0,0,2.428-1.875Z"/><path class="b" d="M34.083,33.015H34.6c.587.806,1.214,1.6,1.79,2.433l.476-2.433a1.4,1.4,0,0,0,.205.016,1.522,1.522,0,0,0,.211-.016l-.7,3.567-.441-.005c-.477-.672-.918-1.311-1.39-1.929l-.456-.593L33.8,36.571c-.066,0-.137-.014-.2-.014s-.143.009-.211.014Z"/><path class="b" d="M39.617,33.69a.49.49,0,0,0-.513-.453.611.611,0,0,0-.676.51c-.137.7,1.478.571,1.245,1.76a1.556,1.556,0,0,1-1.609,1.143,1.388,1.388,0,0,1-.8-.222,5.574,5.574,0,0,0,.281-.661h.1a.559.559,0,0,0,.611.572.7.7,0,0,0,.719-.54c.163-.832-1.457-.53-1.212-1.782a1.369,1.369,0,0,1,1.423-1.091,1.14,1.14,0,0,1,.776.25c-.094.166-.18.337-.267.514Z"/><path class="b" d="M8.326,41.837c-.129-.011-.256-.026-.387-.026s-.265.015-.4.026l.7-3.569h1.993a2.155,2.155,0,0,0-.07.225,1.661,1.661,0,0,0-.017.223,9.1,9.1,0,0,0-1.2-.073l-.22,1.121H9.28a5.91,5.91,0,0,0,.643-.046,1.91,1.91,0,0,0-.07.223,1.689,1.689,0,0,0-.018.223c-.215-.02-.42-.046-.629-.046h-.55Z"/><path class="b" d="M11.1,40.429l.729-1.209.226,1.209Zm1.014.317c.073.35.113.7.158,1.091.154-.011.3-.026.456-.026s.3.015.445.026l-.754-3.615a1.37,1.37,0,0,1-.2.016,1.252,1.252,0,0,1-.2-.016l-2.2,3.6c.084-.005.17-.015.253-.015s.161.01.244.015c.17-.36.364-.683.577-1.08Z"/><path class="b" d="M17.513,38.269a1.433,1.433,0,0,0,.216.027,1.674,1.674,0,0,0,.23-.027c-.112,1.4-.213,2.532-.237,3.568-.145-.011-.284-.026-.43-.026s-.28.015-.429.026c.119-.827.171-1.623.248-2.424-.554.8-1.1,1.591-1.633,2.4a.5.5,0,0,0-.2,0c-.2-.718-.451-1.524-.691-2.34a23.932,23.932,0,0,0-.683,2.366,1.731,1.731,0,0,0-.239-.026,1.888,1.888,0,0,0-.245.026c.392-1.046.8-2.251,1.229-3.568a1.356,1.356,0,0,0,.21.027,1.619,1.619,0,0,0,.226-.027c.218.817.474,1.628.728,2.444C16.335,39.975,16.941,39.159,17.513,38.269Z"/><path class="b" d="M19.073,38.269c.128.011.256.027.387.027s.264-.016.4-.027l-.7,3.568c-.129-.011-.257-.026-.387-.026s-.265.015-.4.026Z"/><path class="b" d="M20.926,41.438a11.841,11.841,0,0,0,1.213-.073,1.91,1.91,0,0,0-.07.223,1.512,1.512,0,0,0-.017.223H20.069l.693-3.542c.128.011.255.027.386.027s.265-.016.4-.027Z"/><path class="b" d="M23.434,38.269c.129.011.257.027.387.027s.264-.016.4-.027l-.7,3.568c-.129-.011-.257-.026-.387-.026s-.264.015-.4.026Z"/><path class="b" d="M25.353,40.429l.73-1.209.226,1.209Zm1.014.317c.073.35.114.7.159,1.091.154-.011.3-.026.455-.026s.3.015.445.026l-.753-3.615a1.383,1.383,0,0,1-.2.016,1.282,1.282,0,0,1-.2-.016l-2.2,3.6c.085-.005.17-.015.254-.015s.161.01.244.015c.169-.36.363-.683.577-1.08Z"/><path class="b" d="M28.779,41.438a11.827,11.827,0,0,0,1.213-.073,1.731,1.731,0,0,0-.069.223,1.387,1.387,0,0,0-.017.223H27.922l.693-3.542c.129.011.257.027.387.027s.264-.016.4-.027Z"/><path class="b" d="M33.213,38.268a1.764,1.764,0,0,0-.07.225,1.512,1.512,0,0,0-.017.223,7.176,7.176,0,0,0-1.2-.073l-.219,1.121h.544a5.169,5.169,0,0,0,.653-.046,1.9,1.9,0,0,0-.069.223,1.535,1.535,0,0,0-.018.223,4.748,4.748,0,0,0-.635-.046h-.544l-.258,1.318a10.232,10.232,0,0,0,1.224-.073,1.788,1.788,0,0,0-.07.223,1.551,1.551,0,0,0-.018.225H30.527l.693-3.543Z"/><path class="b" d="M35.332,38.944a.488.488,0,0,0-.513-.451.611.611,0,0,0-.676.509c-.137.7,1.478.571,1.245,1.76A1.556,1.556,0,0,1,33.779,41.9a1.377,1.377,0,0,1-.8-.224,5.478,5.478,0,0,0,.281-.659h.1a.558.558,0,0,0,.611.572.7.7,0,0,0,.719-.541c.161-.832-1.458-.53-1.213-1.782a1.371,1.371,0,0,1,1.423-1.09,1.144,1.144,0,0,1,.776.249c-.094.166-.18.338-.266.514Z"/></svg>